<svg version="1.1" id="Layer_1" xmlns="http://www.w3.org/2000/svg" xmlns:xlink="http://www.w3.org/1999/xlink" x="0px" y="0px"
	 width="100%" viewBox="0 0 512 512" enable-background="new 0 0 512 512" xml:space="preserve">
<path fill="#FFFFFF" opacity="1.000000" stroke="none" 
	d="
M247.000000,513.000000 
	C165.036636,513.000000 83.073265,513.000000 1.054949,513.000000 
	C1.054949,342.446228 1.054949,171.892426 1.054949,1.000000 
	C73.354416,1.000000 145.709351,1.000000 218.513245,1.359286 
	C215.014404,4.738391 213.864456,8.922874 215.612198,13.240085 
	C217.360901,17.559654 221.684082,18.575991 226.003754,18.649563 
	C232.164688,18.754496 238.328720,18.678503 244.491425,18.678888 
	C252.527847,18.679392 260.564270,18.679012 269.595093,18.679012 
	C268.282990,20.324799 267.927277,20.870510 267.476807,21.321543 
	C251.233978,37.584709 235.072998,53.931553 218.661133,70.022461 
	C215.049774,73.563194 214.028503,77.331024 215.706360,81.665131 
	C217.379089,85.985970 221.388397,86.765518 225.607895,86.771164 
	C233.267578,86.781425 240.927048,86.902534 248.586777,86.927521 
	C262.743561,86.973701 276.900848,87.052422 291.057098,86.972961 
	C296.210144,86.944046 301.012848,82.368866 300.991791,77.936699 
	C300.967285,72.782150 296.676941,68.993034 290.844940,68.991356 
	C277.187042,68.987419 263.529114,68.999313 249.871277,68.973930 
	C248.678101,68.971710 247.485367,68.742188 246.439926,68.633568 
	C263.118042,51.705578 279.474518,34.867146 296.126129,18.325836 
	C302.322113,12.170918 302.613403,6.238412 296.000000,1.000000 
	C368.300934,1.000000 440.601837,1.000000 512.951416,1.000000 
	C512.951416,171.557785 512.951416,342.115601 512.951416,513.000000 
	C431.978851,513.000000 350.957275,513.000000 269.635132,512.658203 
	C286.666718,508.790375 300.068024,499.390747 308.973907,484.274231 
	C312.962860,477.503540 315.312653,469.767151 318.604187,462.002136 
	C319.650818,462.002136 321.473572,462.002136 323.296295,462.002136 
	C350.129608,462.002106 376.962921,462.023193 403.796204,461.990295 
	C412.857605,461.979218 419.960449,454.830902 419.992462,445.748322 
	C420.032379,434.415161 419.391602,423.039093 420.178772,411.760712 
	C420.923309,401.092407 411.272766,392.849335 401.529236,392.761017 
	C388.170837,392.639984 378.118896,381.267090 377.995209,369.014648 
	C377.682892,338.076416 377.712128,307.127319 376.786224,276.207031 
	C376.485962,266.180267 374.638916,255.935181 371.778381,246.300934 
	C364.174103,220.689682 348.926056,200.001907 327.025848,184.889618 
	C316.389679,177.550125 304.266327,172.365845 292.002045,165.767853 
	C292.002045,161.941818 292.065521,156.618423 291.963440,151.298218 
	C291.932739,149.697250 291.569153,148.070023 291.141418,146.514404 
	C287.227081,132.278687 278.404175,123.705109 263.561310,120.639709 
	C250.904037,118.025673 235.043793,125.003693 228.336838,136.149628 
	C223.532532,144.133636 222.656738,152.804108 223.014343,161.778595 
	C223.156586,165.348221 223.102676,168.339615 219.201492,170.552185 
	C215.457733,172.675476 214.814514,176.876968 216.620453,180.719254 
	C218.408752,184.524002 221.696548,186.277756 226.090393,185.439240 
	C227.698456,185.132370 229.355438,185.081848 230.901337,185.234543 
	C229.504501,186.704620 228.196442,187.854538 226.539856,189.033859 
	C218.039734,195.959518 209.482300,202.437653 201.838577,209.857117 
	C192.119659,219.290833 185.589828,231.011475 180.775406,243.643066 
	C180.531021,244.284256 181.105301,245.237488 181.209763,246.361618 
	C180.715942,247.442215 180.310745,248.206619 179.540710,249.053131 
	C178.877899,250.249847 178.579910,251.364456 178.236237,252.841858 
	C177.570770,255.081329 176.846863,256.930786 176.348602,258.839203 
	C173.682220,269.052094 171.038513,279.276184 172.770477,290.266663 
	C172.625504,298.031219 172.794144,305.515076 172.922470,313.411743 
	C173.101685,319.185547 173.321213,324.546570 173.155136,330.123993 
	C172.517166,332.106018 172.057449,333.870331 172.046310,335.637451 
	C171.977219,346.607300 172.345215,357.592926 171.851898,368.541046 
	C171.635223,373.350067 170.066360,378.197510 168.487457,382.814117 
	C167.237640,386.468475 165.035599,389.797180 163.225937,393.251709 
	C163.195465,393.232941 163.144928,393.182251 162.843597,393.117371 
	C162.028412,393.323425 161.514572,393.594330 160.714539,394.031464 
	C158.959610,395.465637 157.490875,396.733582 155.634705,398.000793 
	C149.712738,399.301300 144.178223,400.602570 138.820282,401.606995 
	C150.068878,392.071075 155.273880,380.245575 155.184418,365.825531 
	C155.035568,341.834961 155.399826,317.839355 155.075378,293.852264 
	C154.727234,268.114410 160.628571,244.418549 175.959442,223.377289 
	C179.555161,218.442245 178.825500,212.950531 174.740250,210.065079 
	C170.747894,207.245270 164.855408,208.483551 161.593246,213.200455 
	C147.296921,233.872253 138.601715,256.588318 138.225311,281.902527 
	C137.816650,309.386414 137.921448,336.880402 138.044647,364.368896 
	C138.118713,380.898254 127.250389,392.921509 111.556404,393.100372 
	C102.376740,393.204987 95.026512,401.385620 95.004570,410.481781 
	C94.976845,421.977600 95.139580,433.475891 94.952866,444.968781 
	C94.804855,454.079285 103.644836,462.252686 112.184341,462.137604 
	C139.336426,461.771637 166.496704,462.041412 193.653397,461.948120 
	C196.738251,461.937531 198.345200,462.601318 199.068512,465.981384 
	C202.850601,483.655579 212.688950,497.116638 228.571106,505.711334 
	C234.339569,508.832947 240.835831,510.609650 247.000000,513.000000 
M168.792511,170.664169 
	C172.358292,167.609436 174.025772,164.034439 171.997665,159.372375 
	C170.038361,154.868423 166.190735,153.992340 161.865097,153.991348 
	C148.545059,153.988312 135.225021,153.999496 121.905037,153.974167 
	C120.712097,153.971893 119.519592,153.745575 118.892334,153.681274 
	C135.673935,136.543976 152.410599,119.392822 169.233124,102.326324 
	C172.407501,99.105911 173.938568,95.699539 171.977936,91.338028 
	C170.216919,87.420517 167.103271,85.931839 162.861923,85.955528 
	C140.885056,86.078285 118.907463,86.065941 96.930298,86.147697 
	C90.547981,86.171440 86.919716,89.302094 86.832962,94.648697 
	C86.743790,100.144691 90.584503,103.675468 96.948616,103.759537 
	C103.274544,103.843102 109.602409,103.780724 115.929420,103.781212 
	C124.149925,103.781853 132.370438,103.781364 141.876678,103.781364 
	C139.590561,106.183289 138.390060,107.499092 137.132355,108.757736 
	C121.597359,124.304390 106.092667,139.881714 90.482071,155.352127 
	C87.134552,158.669617 86.100357,162.429276 87.630066,166.685013 
	C89.233978,171.147186 93.041512,171.925476 97.366135,171.917038 
	C119.010338,171.874817 140.654831,171.991379 162.299118,171.965439 
	C164.215515,171.963135 166.131149,171.336578 168.792511,170.664169 
M362.509338,171.879089 
	C381.166626,171.922668 399.824188,172.019531 418.480927,171.938599 
	C420.675201,171.929092 423.239990,171.485504 424.975189,170.289062 
	C428.088989,168.142105 429.684662,165.054642 428.508362,160.875412 
	C427.031464,155.628342 423.247498,154.051865 418.483185,154.020798 
	C405.156616,153.933868 391.829163,153.998856 378.502075,153.977386 
	C377.120239,153.975159 375.738678,153.795410 373.796661,153.658554 
	C375.054688,152.274551 375.789337,151.391296 376.600433,150.584961 
	C392.783661,134.497543 408.956299,118.399399 425.182526,102.355438 
	C428.376129,99.197723 429.977966,95.791534 427.992340,91.383080 
	C426.224426,87.458076 423.154388,85.933487 418.905182,85.956726 
	C396.916595,86.076981 374.927338,86.064835 352.938507,86.148071 
	C346.348358,86.173019 343.148560,89.011162 343.044464,94.685242 
	C342.936859,100.546471 346.300873,103.673531 353.018494,103.760391 
	C359.347839,103.842232 365.679047,103.780792 372.009430,103.781281 
	C380.219696,103.781906 388.429993,103.781433 396.640259,103.781433 
	C387.019440,114.890076 377.144714,124.757866 367.272003,134.627670 
	C360.321014,141.576614 353.428986,148.585815 346.399109,155.453995 
	C343.026947,158.748596 342.106598,162.542252 343.699097,166.808762 
	C345.278076,171.039139 348.860718,172.052155 353.019531,171.897232 
	C355.847565,171.791885 358.682800,171.878311 362.509338,171.879089 
M202.497040,194.104156 
	C202.683731,189.585327 200.872406,185.842621 196.414627,185.097275 
	C193.750031,184.651749 190.207352,185.741058 187.971283,187.382614 
	C185.123169,189.473511 184.329987,193.520554 186.580048,196.345627 
	C188.429733,198.668030 191.651901,200.786819 194.521027,201.193085 
	C198.526901,201.760315 201.142502,198.732208 202.497040,194.104156 
z"/>
<path fill="#438EFF" opacity="1.000000" stroke="none" 
	d="
M230.990112,184.914398 
	C229.355438,185.081848 227.698456,185.132370 226.090393,185.439240 
	C221.696548,186.277756 218.408752,184.524002 216.620453,180.719254 
	C214.814514,176.876968 215.457733,172.675476 219.201492,170.552185 
	C223.102676,168.339615 223.156586,165.348221 223.014343,161.778595 
	C222.656738,152.804108 223.532532,144.133636 228.336838,136.149628 
	C235.043793,125.003693 250.904037,118.025673 263.561310,120.639709 
	C278.404175,123.705109 287.227081,132.278687 291.141418,146.514404 
	C291.569153,148.070023 291.932739,149.697250 291.963440,151.298218 
	C292.065521,156.618423 292.002045,161.941818 292.002045,165.767853 
	C304.266327,172.365845 316.389679,177.550125 327.025848,184.889618 
	C348.926056,200.001907 364.174103,220.689682 371.778381,246.300934 
	C374.638916,255.935181 376.485962,266.180267 376.786224,276.207031 
	C377.712128,307.127319 377.682892,338.076416 377.995209,369.014648 
	C378.118896,381.267090 388.170837,392.639984 401.529236,392.761017 
	C411.272766,392.849335 420.923309,401.092407 420.178772,411.760712 
	C419.391602,423.039093 420.032379,434.415161 419.992462,445.748322 
	C419.960449,454.830902 412.857605,461.979218 403.796204,461.990295 
	C376.962921,462.023193 350.129608,462.002106 323.296295,462.002136 
	C321.473572,462.002136 319.650818,462.002136 318.604187,462.002136 
	C315.312653,469.767151 312.962860,477.503540 308.973907,484.274231 
	C300.068024,499.390747 286.666718,508.790375 269.167267,512.658203 
	C261.979065,513.000000 254.958099,513.000000 247.468567,513.000000 
	C240.835831,510.609650 234.339569,508.832947 228.571106,505.711334 
	C212.688950,497.116638 202.850601,483.655579 199.068512,465.981384 
	C198.345200,462.601318 196.738251,461.937531 193.653397,461.948120 
	C166.496704,462.041412 139.336426,461.771637 112.184341,462.137604 
	C103.644836,462.252686 94.804855,454.079285 94.952866,444.968781 
	C95.139580,433.475891 94.976845,421.977600 95.004570,410.481781 
	C95.026512,401.385620 102.376740,393.204987 111.556404,393.100372 
	C127.250389,392.921509 138.118713,380.898254 138.044647,364.368896 
	C137.921448,336.880402 137.816650,309.386414 138.225311,281.902527 
	C138.601715,256.588318 147.296921,233.872253 161.593246,213.200455 
	C164.855408,208.483551 170.747894,207.245270 174.740250,210.065079 
	C178.825500,212.950531 179.555161,218.442245 175.959442,223.377289 
	C160.628571,244.418549 154.727234,268.114410 155.075378,293.852264 
	C155.399826,317.839355 155.035568,341.834961 155.184418,365.825531 
	C155.273880,380.245575 150.068878,392.071075 138.505463,401.687683 
	C134.885605,403.918884 131.757156,405.772522 128.251907,407.704590 
	C124.172020,408.559570 120.499710,409.654572 116.756546,410.016327 
	C113.514946,410.329559 112.592896,411.657593 112.681404,414.739868 
	C112.866699,421.193085 112.737282,427.655396 112.737175,434.113953 
	C112.737114,437.660950 112.737175,441.207947 112.737175,444.531799 
	C119.067230,444.531799 124.495522,444.531799 130.381348,444.655701 
	C131.504471,444.810516 132.170074,444.868469 132.835663,444.868500 
	C215.831436,444.873566 298.827209,444.875549 381.822968,444.864746 
	C383.149963,444.864563 384.476990,444.704834 386.278442,444.725555 
	C392.007660,444.831543 397.262421,444.831543 402.922699,444.831543 
	C402.922699,436.330383 402.922699,428.531982 402.922699,420.733582 
	C402.922699,411.555969 402.921631,411.561340 394.167419,409.818420 
	C393.520721,409.689636 392.910950,409.385254 392.274231,409.195343 
	C371.786163,403.085175 360.062561,387.425110 360.014130,365.921295 
	C359.962006,342.778046 360.096039,319.634033 359.955688,296.491516 
	C359.899323,287.198334 360.205688,277.776794 358.835846,268.640228 
	C353.663208,234.139984 335.483002,208.444839 304.712341,191.887573 
	C292.424744,185.275803 279.239044,181.947418 265.258789,180.680176 
	C254.156998,179.673843 243.545990,180.553696 232.687195,183.879181 
	C231.889542,184.278564 231.417023,184.622757 230.974854,184.970215 
	C231.005203,184.973495 230.990112,184.914398 230.990112,184.914398 
M258.836426,163.041656 
	C264.024567,163.419693 269.212677,163.797729 274.338593,164.171234 
	C276.294830,149.325821 272.605865,141.881699 261.084076,137.997833 
	C247.539963,135.676468 237.154266,146.606583 241.693832,164.323746 
	C247.085953,163.846344 252.527863,163.364548 258.836426,163.041656 
M232.028549,461.931732 
	C226.806824,461.931732 221.585098,461.931732 216.241211,461.931732 
	C220.047165,480.366211 234.055038,492.955109 253.716858,495.868927 
	C278.002899,497.492279 296.899933,479.294983 298.688690,462.060455 
	C276.736389,462.060455 254.842865,462.060455 232.028549,461.931732 
z"/>
<path fill="#468FFF" opacity="1.000000" stroke="none" 
	d="
M295.531342,1.000000 
	C302.613403,6.238412 302.322113,12.170918 296.126129,18.325836 
	C279.474518,34.867146 263.118042,51.705578 246.439926,68.633568 
	C247.485367,68.742188 248.678101,68.971710 249.871277,68.973930 
	C263.529114,68.999313 277.187042,68.987419 290.844940,68.991356 
	C296.676941,68.993034 300.967285,72.782150 300.991791,77.936699 
	C301.012848,82.368866 296.210144,86.944046 291.057098,86.972961 
	C276.900848,87.052422 262.743561,86.973701 248.586777,86.927521 
	C240.927048,86.902534 233.267578,86.781425 225.607895,86.771164 
	C221.388397,86.765518 217.379089,85.985970 215.706360,81.665131 
	C214.028503,77.331024 215.049774,73.563194 218.661133,70.022461 
	C235.072998,53.931553 251.233978,37.584709 267.476807,21.321543 
	C267.927277,20.870510 268.282990,20.324799 269.595093,18.679012 
	C260.564270,18.679012 252.527847,18.679392 244.491425,18.678888 
	C238.328720,18.678503 232.164688,18.754496 226.003754,18.649563 
	C221.684082,18.575991 217.360901,17.559654 215.612198,13.240085 
	C213.864456,8.922874 215.014404,4.738391 218.981094,1.359286 
	C244.354233,1.000000 269.708466,1.000000 295.531342,1.000000 
z"/>
<path fill="#E3E7F2" opacity="1.000000" stroke="none" 
	d="
M385.803955,444.619568 
	C384.476990,444.704834 383.149963,444.864563 381.822968,444.864746 
	C298.827209,444.875549 215.831436,444.873566 132.835663,444.868500 
	C132.170074,444.868469 131.504471,444.810516 130.397034,444.222534 
	C129.966644,433.333282 130.039200,423.000488 129.928375,412.669617 
	C129.910278,410.983978 129.082336,409.307068 128.628708,407.626129 
	C131.757156,405.772522 134.885605,403.918884 138.328888,401.984558 
	C144.178223,400.602570 149.712738,399.301300 155.612061,398.377319 
	C154.510742,405.265076 156.831406,409.695801 163.135468,410.303589 
	C169.512451,410.918396 176.035675,410.643433 182.441513,410.113495 
	C186.786453,409.754028 189.047165,406.585175 189.089096,402.167419 
	C189.133606,397.479370 186.689453,394.402557 182.127380,393.974579 
	C175.870102,393.387604 169.549744,393.473145 163.256409,393.270477 
	C165.035599,389.797180 167.237640,386.468475 168.487457,382.814117 
	C170.066360,378.197510 171.635223,373.350067 171.851898,368.541046 
	C172.345215,357.592926 171.977219,346.607300 172.046310,335.637451 
	C172.057449,333.870331 172.517166,332.106018 173.395325,330.327057 
	C176.877029,333.442657 180.224136,334.719666 184.298782,332.899261 
	C188.190201,331.160736 189.348022,327.894775 189.187317,323.907806 
	C189.120300,322.245636 189.115250,320.575562 189.191376,318.914062 
	C189.397415,314.416992 188.412750,310.625702 183.646713,308.873993 
	C178.860947,307.115021 175.741135,309.597168 172.962799,312.998962 
	C172.794144,305.515076 172.625504,298.031219 173.063385,290.452942 
	C176.099213,294.218353 179.836639,294.954865 183.730072,293.760132 
	C187.396240,292.635132 189.143066,289.582214 189.273117,285.682007 
	C189.317276,284.357300 189.621262,283.042999 189.703583,281.717560 
	C191.355103,255.117905 204.201004,235.586975 227.201752,222.555328 
	C236.799042,217.117752 247.428665,215.337952 258.226929,214.053070 
	C263.798279,213.390167 266.676971,209.355362 265.937897,204.409424 
	C265.290100,200.074280 260.972626,196.896011 255.964539,197.299881 
	C244.108368,198.256012 232.674500,200.851868 221.918396,206.135849 
	C203.957504,214.959198 190.905197,228.739243 181.298401,246.045425 
	C181.105301,245.237488 180.531021,244.284256 180.775406,243.643066 
	C185.589828,231.011475 192.119659,219.290833 201.838577,209.857117 
	C209.482300,202.437653 218.039734,195.959518 227.019653,189.030365 
	C236.421402,189.664001 245.154419,189.512451 253.538818,191.148010 
	C280.446136,196.396820 302.435730,210.059418 319.407898,231.668396 
	C335.964447,252.748260 342.977875,276.903900 343.048920,303.476776 
	C343.129303,333.556641 343.586182,363.635559 343.420837,393.745728 
	C301.799316,393.777374 260.636322,393.776642 219.473358,393.783997 
	C217.641388,393.784302 215.796860,393.735687 213.979980,393.922180 
	C209.755432,394.355743 207.318558,396.935577 206.770721,400.973053 
	C206.189957,405.253357 208.028656,408.524292 212.234924,409.900177 
	C214.245071,410.557709 216.484726,410.748749 218.620895,410.751251 
	C258.950592,410.798676 299.280334,410.764191 339.610016,410.816467 
	C344.197540,410.822418 348.127380,409.709717 351.099487,406.243958 
	C357.028870,414.308105 364.969635,418.257507 374.445221,418.928711 
	C382.178284,419.476471 385.720032,422.568268 385.921722,430.202393 
	C386.048615,435.003723 385.854248,439.813538 385.803955,444.619568 
z"/>
<path fill="#A4C2F7" opacity="1.000000" stroke="none" 
	d="
M386.278442,444.725555 
	C385.854248,439.813538 386.048615,435.003723 385.921722,430.202393 
	C385.720032,422.568268 382.178284,419.476471 374.445221,418.928711 
	C364.969635,418.257507 357.028870,414.308105 351.089081,405.817749 
	C351.139648,397.462463 349.958130,395.572052 343.879333,393.714874 
	C343.586182,363.635559 343.129303,333.556641 343.048920,303.476776 
	C342.977875,276.903900 335.964447,252.748260 319.407898,231.668396 
	C302.435730,210.059418 280.446136,196.396820 253.538818,191.148010 
	C245.154419,189.512451 236.421402,189.664001 227.368179,189.000946 
	C228.196442,187.854538 229.504501,186.704620 230.901337,185.234558 
	C230.990112,184.914398 231.005203,184.973495 231.302231,184.979950 
	C232.070282,184.598953 232.541306,184.211472 233.012329,183.823990 
	C243.545990,180.553696 254.156998,179.673843 265.258789,180.680176 
	C279.239044,181.947418 292.424744,185.275803 304.712341,191.887573 
	C335.483002,208.444839 353.663208,234.139984 358.835846,268.640228 
	C360.205688,277.776794 359.899323,287.198334 359.955688,296.491516 
	C360.096039,319.634033 359.962006,342.778046 360.014130,365.921295 
	C360.062561,387.425110 371.786163,403.085175 392.274231,409.195343 
	C392.910950,409.385254 393.520721,409.689636 394.167419,409.818420 
	C402.921631,411.561340 402.922699,411.555969 402.922699,420.733582 
	C402.922699,428.531982 402.922699,436.330383 402.922699,444.831543 
	C397.262421,444.831543 392.007660,444.831543 386.278442,444.725555 
z"/>
<path fill="#468FFF" opacity="1.000000" stroke="none" 
	d="
M168.419830,170.832062 
	C166.131149,171.336578 164.215515,171.963135 162.299118,171.965439 
	C140.654831,171.991379 119.010338,171.874817 97.366135,171.917038 
	C93.041512,171.925476 89.233978,171.147186 87.630066,166.685013 
	C86.100357,162.429276 87.134552,158.669617 90.482071,155.352127 
	C106.092667,139.881714 121.597359,124.304390 137.132355,108.757736 
	C138.390060,107.499092 139.590561,106.183289 141.876678,103.781364 
	C132.370438,103.781364 124.149925,103.781853 115.929420,103.781212 
	C109.602409,103.780724 103.274544,103.843102 96.948616,103.759537 
	C90.584503,103.675468 86.743790,100.144691 86.832962,94.648697 
	C86.919716,89.302094 90.547981,86.171440 96.930298,86.147697 
	C118.907463,86.065941 140.885056,86.078285 162.861923,85.955528 
	C167.103271,85.931839 170.216919,87.420517 171.977936,91.338028 
	C173.938568,95.699539 172.407501,99.105911 169.233124,102.326324 
	C152.410599,119.392822 135.673935,136.543976 118.892334,153.681274 
	C119.519592,153.745575 120.712097,153.971893 121.905037,153.974167 
	C135.225021,153.999496 148.545059,153.988312 161.865097,153.991348 
	C166.190735,153.992340 170.038361,154.868423 171.997665,159.372375 
	C174.025772,164.034439 172.358292,167.609436 168.419830,170.832062 
z"/>
<path fill="#468FFF" opacity="1.000000" stroke="none" 
	d="
M362.012085,171.879028 
	C358.682800,171.878311 355.847565,171.791885 353.019531,171.897232 
	C348.860718,172.052155 345.278076,171.039139 343.699097,166.808762 
	C342.106598,162.542252 343.026947,158.748596 346.399109,155.453995 
	C353.428986,148.585815 360.321014,141.576614 367.272003,134.627670 
	C377.144714,124.757866 387.019440,114.890076 396.640259,103.781433 
	C388.429993,103.781433 380.219696,103.781906 372.009430,103.781281 
	C365.679047,103.780792 359.347839,103.842232 353.018494,103.760391 
	C346.300873,103.673531 342.936859,100.546471 343.044464,94.685242 
	C343.148560,89.011162 346.348358,86.173019 352.938507,86.148071 
	C374.927338,86.064835 396.916595,86.076981 418.905182,85.956726 
	C423.154388,85.933487 426.224426,87.458076 427.992340,91.383080 
	C429.977966,95.791534 428.376129,99.197723 425.182526,102.355438 
	C408.956299,118.399399 392.783661,134.497543 376.600433,150.584961 
	C375.789337,151.391296 375.054688,152.274551 373.796661,153.658554 
	C375.738678,153.795410 377.120239,153.975159 378.502075,153.977386 
	C391.829163,153.998856 405.156616,153.933868 418.483185,154.020798 
	C423.247498,154.051865 427.031464,155.628342 428.508362,160.875412 
	C429.684662,165.054642 428.088989,168.142105 424.975189,170.289062 
	C423.239990,171.485504 420.675201,171.929092 418.480927,171.938599 
	C399.824188,172.019531 381.166626,171.922668 362.012085,171.879028 
z"/>
<path fill="#448EFF" opacity="1.000000" stroke="none" 
	d="
M181.209763,246.361618 
	C190.905197,228.739243 203.957504,214.959198 221.918396,206.135849 
	C232.674500,200.851868 244.108368,198.256012 255.964539,197.299881 
	C260.972626,196.896011 265.290100,200.074280 265.937897,204.409424 
	C266.676971,209.355362 263.798279,213.390167 258.226929,214.053070 
	C247.428665,215.337952 236.799042,217.117752 227.201752,222.555328 
	C204.201004,235.586975 191.355103,255.117905 189.703583,281.717560 
	C189.621262,283.042999 189.317276,284.357300 189.273117,285.682007 
	C189.143066,289.582214 187.396240,292.635132 183.730072,293.760132 
	C179.836639,294.954865 176.099213,294.218353 173.377029,290.172302 
	C171.038513,279.276184 173.682220,269.052094 176.348602,258.839203 
	C176.846863,256.930786 177.570770,255.081329 178.479691,252.608765 
	C179.147736,250.998917 179.526642,249.984970 179.905548,248.971024 
	C180.310745,248.206619 180.715942,247.442215 181.209763,246.361618 
z"/>
<path fill="#468FFF" opacity="1.000000" stroke="none" 
	d="
M163.225937,393.251709 
	C169.549744,393.473145 175.870102,393.387604 182.127380,393.974579 
	C186.689453,394.402557 189.133606,397.479370 189.089096,402.167419 
	C189.047165,406.585175 186.786453,409.754028 182.441513,410.113495 
	C176.035675,410.643433 169.512451,410.918396 163.135468,410.303589 
	C156.831406,409.695801 154.510742,405.265076 155.999512,398.378082 
	C157.490875,396.733582 158.959610,395.465637 161.016495,394.065735 
	C162.118088,393.683289 162.631500,393.432770 163.144928,393.182251 
	C163.144928,393.182251 163.195465,393.232941 163.225937,393.251709 
z"/>
<path fill="#468FFF" opacity="1.000000" stroke="none" 
	d="
M172.922485,313.411743 
	C175.741135,309.597168 178.860947,307.115021 183.646713,308.873993 
	C188.412750,310.625702 189.397415,314.416992 189.191376,318.914062 
	C189.115250,320.575562 189.120300,322.245636 189.187317,323.907806 
	C189.348022,327.894775 188.190201,331.160736 184.298782,332.899261 
	C180.224136,334.719666 176.877029,333.442657 173.780930,330.110626 
	C173.321213,324.546570 173.101685,319.185547 172.922485,313.411743 
z"/>
<path fill="#458FFF" opacity="1.000000" stroke="none" 
	d="
M202.392609,194.457489 
	C201.142502,198.732208 198.526901,201.760315 194.521027,201.193085 
	C191.651901,200.786819 188.429733,198.668030 186.580048,196.345627 
	C184.329987,193.520554 185.123169,189.473511 187.971283,187.382614 
	C190.207352,185.741058 193.750031,184.651749 196.414627,185.097275 
	C200.872406,185.842621 202.683731,189.585327 202.392609,194.457489 
z"/>
<path fill="#E3E7F2" opacity="1.000000" stroke="none" 
	d="
M179.540710,249.053131 
	C179.526642,249.984970 179.147736,250.998917 178.525375,252.245972 
	C178.579910,251.364456 178.877899,250.249847 179.540710,249.053131 
z"/>
<path fill="#E3E7F2" opacity="1.000000" stroke="none" 
	d="
M162.843582,393.117371 
	C162.631500,393.432770 162.118088,393.683289 161.302704,393.899536 
	C161.514572,393.594330 162.028412,393.323425 162.843582,393.117371 
z"/>
<path fill="#A4C2F7" opacity="1.000000" stroke="none" 
	d="
M232.949356,462.060455 
	C254.842865,462.060455 276.736389,462.060455 298.688690,462.060455 
	C296.899933,479.294983 278.002899,497.492279 253.279724,495.323792 
	C242.799377,485.947205 235.401184,475.507568 232.949356,462.060455 
z"/>
<path fill="#FEFEFF" opacity="1.000000" stroke="none" 
	d="
M128.251907,407.704590 
	C129.082336,409.307068 129.910278,410.983978 129.928375,412.669617 
	C130.039200,423.000488 129.966644,433.333282 129.939484,444.098633 
	C124.495522,444.531799 119.067230,444.531799 112.737175,444.531799 
	C112.737175,441.207947 112.737114,437.660950 112.737175,434.113953 
	C112.737282,427.655396 112.866699,421.193085 112.681404,414.739868 
	C112.592896,411.657593 113.514946,410.329559 116.756546,410.016327 
	C120.499710,409.654572 124.172020,408.559570 128.251907,407.704590 
z"/>
<path fill="#FCFDFF" opacity="1.000000" stroke="none" 
	d="
M232.488953,461.996094 
	C235.401184,475.507568 242.799377,485.947205 252.924469,495.145203 
	C234.055038,492.955109 220.047165,480.366211 216.241211,461.931732 
	C221.585098,461.931732 226.806824,461.931732 232.488953,461.996094 
z"/>
<path fill="#FDFEFF" opacity="1.000000" stroke="none" 
	d="
M257.969757,162.882736 
	C252.527863,163.364548 247.085953,163.846344 241.693832,164.323746 
	C237.154266,146.606583 247.539963,135.676468 261.532166,138.472092 
	C258.200867,146.515900 257.390717,154.582947 257.969757,162.882736 
z"/>
<path fill="#E0E5F2" opacity="1.000000" stroke="none" 
	d="
M258.403076,162.962189 
	C257.390717,154.582947 258.200867,146.515900 261.971375,138.576874 
	C272.605865,141.881699 276.294830,149.325821 274.338593,164.171234 
	C269.212677,163.797729 264.024567,163.419693 258.403076,162.962189 
z"/>
<path fill="#FFFFFF" opacity="1.000000" stroke="none" 
	d="
M232.687195,183.879181 
	C232.541306,184.211472 232.070282,184.598953 231.271881,184.976685 
	C231.417023,184.622757 231.889542,184.278564 232.687195,183.879181 
z"/>
<path fill="#468FFF" opacity="1.000000" stroke="none" 
	d="
M343.420807,393.745728 
	C349.958130,395.572052 351.139648,397.462463 350.982483,405.489380 
	C348.127380,409.709717 344.197540,410.822418 339.610016,410.816467 
	C299.280334,410.764191 258.950592,410.798676 218.620895,410.751251 
	C216.484726,410.748749 214.245071,410.557709 212.234924,409.900177 
	C208.028656,408.524292 206.189957,405.253357 206.770721,400.973053 
	C207.318558,396.935577 209.755432,394.355743 213.979980,393.922180 
	C215.796860,393.735687 217.641388,393.784302 219.473358,393.783997 
	C260.636322,393.776642 301.799316,393.777374 343.420807,393.745728 
z"/>
</svg>